<?xml version="1.0" encoding="utf-8"?>
<!-- Generator: Adobe Illustrator 26.2.1, SVG Export Plug-In . SVG Version: 6.00 Build 0)  -->
<svg version="1.1" id="Layer_1" xmlns="http://www.w3.org/2000/svg" xmlns:xlink="http://www.w3.org/1999/xlink" x="0px" y="0px"
	 viewBox="0 0 165.1 164.4" style="enable-background:new 0 0 165.1 164.4;" xml:space="preserve">
<style type="text/css">
	.st0{fill:#704E2C;}
	.st1{fill:#AF6028;}
	.st2{fill:#E5A452;}
	.st3{fill:#EDC36C;}
	.st4{fill:#BF5627;}
	.st5{fill:#FED01E;}
	.st6{fill:#231F20;}
</style>
<rect class="st0" width="165.1" height="164.4"/>
<polygon class="st1" points="165.1,52.6 165.1,30.8 136.5,0 124.6,0 161.4,47.8 "/>
<polygon class="st1" points="0,59.6 9.1,47.8 45.9,0 34,0 0,36.7 "/>
<polygon class="st2" points="165.1,52.6 161.4,47.8 124.6,0 115.8,0 165.1,75.6 "/>
<polygon class="st2" points="0,59.6 0,83.9 54.7,0 45.9,0 9.1,47.8 "/>
<polygon class="st3" points="0,164.4 165.1,164.4 165.1,75.6 115.8,0 54.7,0 0,83.9 "/>
<path class="st4" d="M91.9,52.8c-0.5-0.4-1-0.8-1.4-1.2c-2.5-2.2-2.9-2.5-5.1-2.5c-1.9,0-2.1,0.2-4.3,2c-0.5,0.4-1,0.8-1.7,1.3
	c-2.1,1.7-4.1,3.8-5.8,6.1c-6.4,8.5-8.9,19.4-7.1,29.8c2.7,11.9,10.4,20.2,18.8,20.2c8.1,0,15.5-7.7,18.5-19.1
	C106.9,71.8,97.2,57.2,91.9,52.8z"/>
<path class="st5" d="M87.4,52.3c-0.2-0.2-0.5-0.4-0.7-0.6c-0.4-0.3-0.9-0.8-1.1-0.9c0,0-0.1,0-0.2,0c-0.1,0-0.1,0-0.2,0
	c-0.2,0.1-0.5,0.4-0.7,0.5c-0.3,0.2-0.6,0.5-0.9,0.7c-1,0.8-1.9,1.7-2.6,2.8c-3.1,4.1-4.3,9.3-3.4,14.2c1.3,5.3,4.5,9,7.8,9
	c3.2,0,6.3-3.5,7.7-8.4C94.4,61.3,89.7,54.2,87.4,52.3z"/>
<path class="st6" d="M138.8,104.4c-4.2-5.8-9.3-10.8-15.1-14.9c-3-2.1-6.1-4-9.3-5.5c0-2,0-3.9-0.2-5.8c1.8-1,3.6-2.2,5.4-3.4
	c5.2-3.7,9.7-8.1,13.4-13.3l2.9-4l-8.1-5.9l-2.9,4c-3.1,4.3-6.8,8-11.1,11c-0.5,0.4-1.1,0.7-1.6,1.1c-1.3-4.1-2.9-7.9-4.8-11.1
	c5.9-5.1,9.7-12.1,10.9-19.9c1.4-8.8-0.7-17.7-6-24.9l-2.9-4l-8.1,5.9l2.9,4c3.7,5.1,5.2,11.3,4.2,17.5c-0.8,5.1-3.2,9.7-6.9,13.2
	c-1.1-1.2-2.2-2.3-3.2-3.1c-0.5-0.4-0.9-0.7-1.3-1.1c-0.9-0.7-1.7-1.5-2.6-2.1c0.7-1.4,1.2-3,1.2-4.7c0-5.7-4.6-10.4-10.4-10.4
	s-10.4,4.6-10.4,10.4c0,1.8,0.5,3.5,1.3,5c-0.5,0.4-0.9,0.7-1.4,1.1c-0.4,0.4-0.9,0.8-1.5,1.2c-1.5,1.2-2.9,2.5-4.2,3.9
	c-1-1-2-2.1-2.8-3.2c-5.9-8.2-6-19.2-0.1-27.4l2.9-4.1l-8.1-5.8L58,12c-8.4,11.7-8.3,27.4,0.2,39.1c1.4,2,3.1,3.8,4.9,5.4
	c-2.1,3.4-3.7,7.1-4.8,10.9c-4.8-3.2-9.1-7.3-12.6-12.2l-2.9-4.1l-8.1,5.8l2.9,4.1c5.1,7.2,11.6,12.8,18.7,16.9
	c-0.2,2-0.2,4.1-0.1,6.1c-9.7,4.8-18,11.9-24.5,20.9l-2.9,4.1l8.1,5.8l2.9-4.1c4.9-6.8,11.1-12.3,18.1-16.3c0.8,2.4,1.7,4.7,2.8,6.8
	c-8.3,7.8-13.7,19.6-13.7,32.7c0,5.4,0.9,10.7,2.7,15.8l1.7,4.7l9.4-3.3l-1.7-4.7c-1.4-4-2.1-8.2-2.1-12.4c0-9.7,3.6-18.4,9.4-24.4
	c5.2,5.6,11.8,8.9,18.9,8.9c7,0,13.5-3.2,18.7-8.8c5.7,6,9.3,14.7,9.3,24.3c0,5.2-1,10.2-3.1,14.9l-2,4.6l9.2,4l2-4.6
	c2.6-6,3.9-12.4,3.9-18.9c0-13-5.2-24.7-13.4-32.5c1.1-2.2,2.1-4.5,2.9-7c1.7,1,3.4,2.1,5.1,3.2c4.9,3.5,9.2,7.8,12.8,12.7l2.9,4
	l8.1-5.9L138.8,104.4z M80.9,54.9c0.8-1.1,1.7-2,2.6-2.8c0.3-0.3,0.6-0.5,0.9-0.7c0.2-0.2,0.5-0.4,0.7-0.5c0,0,0.1,0,0.2,0
	c0.1,0,0.2,0,0.2,0c0.2,0.1,0.7,0.5,1.1,0.9c0.2,0.2,0.5,0.4,0.7,0.6c2.4,2,7.1,9.1,5.7,17.4c-1.3,5-4.5,8.4-7.7,8.4
	c-3.4,0-6.6-3.7-7.8-9C76.7,64.1,77.9,59,80.9,54.9z M103.9,89.3c-0.3,1.2-0.7,2.3-1.1,3.3c0,0.1-0.1,0.2-0.1,0.3
	c-1.6,4.4-3.9,8-6.7,10.7c-0.8,0.8-1.6,1.4-2.4,2c0,0,0,0-0.1,0c-0.4,0.3-0.8,0.5-1.2,0.8c0,0-0.1,0.1-0.1,0.1
	c-0.4,0.2-0.8,0.4-1.2,0.6c-0.1,0-0.2,0.1-0.3,0.1c-0.4,0.2-0.7,0.3-1.1,0.4c-0.2,0.1-0.3,0.1-0.5,0.1c-0.3,0.1-0.6,0.2-0.9,0.3
	c-0.2,0.1-0.5,0.1-0.7,0.1c-0.2,0-0.5,0.1-0.7,0.1c-0.5,0.1-1,0.1-1.5,0.1c-0.5,0-1,0-1.5-0.1c-0.2,0-0.4-0.1-0.6-0.1
	c-0.3,0-0.5-0.1-0.8-0.2c-0.3-0.1-0.6-0.2-0.8-0.2c-0.2-0.1-0.4-0.1-0.6-0.2c-0.3-0.1-0.6-0.3-1-0.4c-0.1-0.1-0.3-0.1-0.4-0.2
	c-0.4-0.2-0.7-0.4-1.1-0.6c-0.1,0-0.2-0.1-0.3-0.1c-0.4-0.2-0.8-0.5-1.1-0.7c0,0-0.1-0.1-0.1-0.1c-0.4-0.3-0.8-0.6-1.2-0.9
	c0,0,0,0-0.1,0c-4.2-3.5-7.6-9.3-9.2-16.4c-1.1-5.9-0.7-11.9,1-17.5c0,0.1,0,0.2,0,0.2l0,0.2c2.3,10.1,9.4,16.9,17.6,16.9
	c7.9,0,14.9-6.5,17.4-16.1l0.1-0.4c0-0.1,0-0.1,0-0.2C104.4,76.7,105,82.8,103.9,89.3z"/>
</svg>
