<?xml version="1.0" encoding="UTF-8"?>
<svg width="160px" height="160px" viewBox="0 0 160 160" version="1.1" xmlns="http://www.w3.org/2000/svg" xmlns:xlink="http://www.w3.org/1999/xlink">
    <title>Group</title>
    <g id="Page-1" stroke="none" stroke-width="1" fill="none" fill-rule="evenodd">
        <g id="Group">
            <polygon id="Rectangle" fill="#704E2C" fill-rule="nonzero" points="0 0 160 0 160 160 0 160"></polygon>
            <polygon id="Path" fill="#AF6028" fill-rule="nonzero" points="160 50 160 30 127 0 115 0"></polygon>
            <polygon id="Path" fill="#AF6028" fill-rule="nonzero" points="0 50 45 0 33 0 0 30"></polygon>
            <polygon id="Path" fill="#E5A452" fill-rule="nonzero" points="160 50 115 0 107 0 160 80"></polygon>
            <polygon id="Path" fill="#E5A452" fill-rule="nonzero" points="0 50 0 80 53 0 45 0"></polygon>
            <polygon id="Path" fill="#EDC36C" fill-rule="nonzero" points="0 160 160 160 160 80 107 0 53.0102968 0 0 80"></polygon>
            <path d="M49.3901108,145.85 C47.7971108,141.32 46.9891108,136.552 47,131.75 C47,110.9 61.8501108,94 80.1501108,94 C98.4501108,94 113.310358,110.9 113.310358,131.75 C113.330111,137.565 112.138111,143.321 109.810111,148.65" id="Stroke-1" stroke="#231F20" stroke-width="10" stroke-linecap="square"></path>
            <path d="M30.25,106.583372 C49.813,79.1553718 87.906,72.7803718 115.333,92.3423718 C120.685,96.1593718 125.385,100.816372 129.25,106.133372" id="Stroke-3" stroke="#231F20" stroke-width="10" stroke-linecap="square"></path>
            <path d="M36.25,56 C53.542,80.217 87.192,85.831 111.409,68.539 C116.118,65.177 120.255,61.078 123.66,56.4" id="Stroke-5" stroke="#231F20" stroke-width="10" stroke-linecap="square"></path>
            <path d="M103.044295,13 C112.288295,25.733 109.461295,43.548 96.7282948,52.793 C83.9952948,62.037 66.1792948,59.209 56.9352948,46.477 C49.7442948,36.572 49.6832948,23.18 56.7842948,13.21" id="Stroke-7" stroke="#231F20" stroke-width="10" stroke-linecap="square"></path>
            <g id="body" transform="translate(56.000000, 42.000000)">
                <path d="M24.3412318,69.29 C35.4212318,69.29 44.8012318,59.13 47.9812318,45.12 C50.1352318,33.285 47.2772318,21.087 40.0912318,11.44 C38.1772318,8.772 35.9062318,6.38 33.3412318,4.33 C31.9192318,3.229 28.1872318,7.10542736e-15 24.3412318,7.10542736e-15 C20.4952318,7.10542736e-15 16.7632318,3.229 15.3412318,4.33 C12.7762318,6.38 10.5052318,8.772 8.59123179,11.44 C1.40523179,21.087 -1.45276821,33.285 0.701231785,45.12 C3.88123179,59.13 13.2612318,69.29 24.3412318,69.29" id="Fill-9" fill="#BF5627"></path>
                <path d="M24.3412318,69.29 C35.4212318,69.29 44.8012318,59.13 47.9812318,45.12 C50.1352318,33.285 47.2772318,21.087 40.0912318,11.44 C38.1772318,8.772 35.9062318,6.38 33.3412318,4.33 C31.9192318,3.229 28.1872318,7.10542736e-15 24.3412318,7.10542736e-15 C20.4952318,7.10542736e-15 16.7632318,3.229 15.3412318,4.33 C12.7762318,6.38 10.5052318,8.772 8.59123179,11.44 C1.40523179,21.087 -1.45276821,33.285 0.701231785,45.12 C3.88123179,59.13 13.2612318,69.29 24.3412318,69.29 Z" id="Stroke-11" stroke="#231F20" stroke-width="10"></path>
            </g>
            <g id="head" transform="translate(75.000000, 30.000000)">
                <path d="M5.36,0 C8.32,0 10.72,2.4 10.72,5.36 C10.72,8.32 8.32,10.72 5.36,10.72 C2.4,10.72 0,8.32 0,5.36 C0,2.4 2.4,0 5.36,0" id="Fill-13" fill="#231F20"></path>
                <path d="M5.36,0 C8.32,0 10.72,2.4 10.72,5.36 C10.72,8.32 8.32,10.72 5.36,10.72 C2.4,10.72 0,8.32 0,5.36 C0,2.4 2.4,0 5.36,0 Z" id="Stroke-15" stroke="#231F20" stroke-width="10" stroke-linecap="square"></path>
            </g>
            <g id="yellow" transform="translate(67.000000, 44.000000)">
                <path d="M13.0941064,37.28 C19.0941064,37.28 24.0941064,31.81 25.8241064,24.28 C26.9811064,17.912 25.4421064,11.349 21.5741064,6.16 C20.8521064,5.227 16.7021064,0 13.1061064,0 C9.51010639,0 5.34810639,5.227 4.62610639,6.16 C0.758106388,11.349 -0.780893612,17.912 0.376106388,24.28 C2.10610639,31.81 7.10610639,37.28 13.1061064,37.28" id="Fill-17" fill="#FED01E"></path>
                <path d="M13.0941064,37.28 C19.0941064,37.28 24.0941064,31.81 25.8241064,24.28 C26.9811064,17.912 25.4421064,11.349 21.5741064,6.16 C20.8521064,5.227 16.7021064,0 13.1061064,0 C9.51010639,0 5.34810639,5.227 4.62610639,6.16 C0.758106388,11.349 -0.780893612,17.912 0.376106388,24.28 C2.10610639,31.81 7.10610639,37.28 13.1061064,37.28" id="Stroke-19" stroke="#231F20" stroke-width="10"></path>
            </g>
        </g>
    </g>
</svg>